<svg width="650" height="671" viewBox="0 0 650 671" fill="none" xmlns="http://www.w3.org/2000/svg">
<path d="M38.44 149.728C28.552 149.728 21.304 146.8 16.696 140.944C12.184 135.088 9.928 126.64 9.928 115.6C9.928 111.376 10.168 106.72 10.648 101.632C11.224 96.544 12.184 91.408 13.528 86.224C14.872 81.04 16.648 76.048 18.856 71.248C21.064 66.352 23.8 62.032 27.064 58.288C30.424 54.448 34.36 51.424 38.872 49.216C43.384 46.912 48.616 45.76 54.568 45.76C64.456 45.76 71.656 48.688 76.168 54.544C80.776 60.4 83.08 68.848 83.08 79.888C83.08 84.112 82.792 88.768 82.216 93.856C81.736 98.944 80.824 104.08 79.48 109.264C78.136 114.448 76.36 119.488 74.152 124.384C71.944 129.184 69.16 133.504 65.8 137.344C62.536 141.088 58.648 144.112 54.136 146.416C49.624 148.624 44.392 149.728 38.44 149.728ZM39.304 139.36C47.08 139.36 53.368 136.384 58.168 130.432C62.968 124.48 66.232 116.32 67.96 105.952L70.696 89.536C71.08 87.328 71.32 85.216 71.416 83.2C71.608 81.184 71.704 79.36 71.704 77.728C71.704 70.816 70.264 65.488 67.384 61.744C64.6 58 60.04 56.128 53.704 56.128C45.928 56.128 39.64 59.104 34.84 65.056C30.04 71.008 26.776 79.168 25.048 89.536L22.312 105.952C21.928 108.16 21.64 110.272 21.448 112.288C21.352 114.304 21.304 116.128 21.304 117.76C21.304 124.672 22.696 130 25.48 133.744C28.36 137.488 32.968 139.36 39.304 139.36ZM45.208 106.096C42.328 106.096 40.264 105.616 39.016 104.656C37.768 103.6 37.144 102.304 37.144 100.768C37.144 100.288 37.192 99.712 37.288 99.04C37.384 98.368 37.528 97.6 37.72 96.736C38.104 94.528 39.016 92.752 40.456 91.408C41.992 90.064 44.44 89.392 47.8 89.392C50.68 89.392 52.744 89.92 53.992 90.976C55.24 91.936 55.864 93.184 55.864 94.72C55.864 95.2 55.816 95.776 55.72 96.448C55.624 97.12 55.48 97.888 55.288 98.752C54.904 100.96 53.944 102.736 52.408 104.08C50.968 105.424 48.568 106.096 45.208 106.096Z" fill="white"/>
<path d="M13.536 445V427.576H40.608V360.184H39.312L18.864 386.968L5.04 376.168L29.088 344.488H62.208V427.576H83.52V445H13.536Z" fill="white"/>
<path d="M363.6 632L352.368 598.304H310.032L298.8 632H295.488L329.04 531.488H333.36L366.912 632H363.6ZM331.344 535.088H330.912L310.896 595.568H351.504L331.344 535.088Z" fill="white"/>
<path d="M463.16 187.456H461.864C460.616 189.664 459.32 191.776 457.976 193.792C456.632 195.712 455.096 197.44 453.368 198.976C451.736 200.416 449.816 201.568 447.608 202.432C445.496 203.296 443 203.728 440.12 203.728C431.864 203.728 425.336 200.608 420.536 194.368C415.832 188.128 413.48 178.912 413.48 166.72C413.48 157.216 414.44 148.384 416.36 140.224C418.376 131.968 421.304 124.864 425.144 118.912C429.08 112.96 433.928 108.304 439.688 104.944C445.544 101.488 452.312 99.76 459.992 99.76C465.176 99.76 469.688 100.48 473.528 101.92C477.368 103.36 480.584 105.424 483.176 108.112C485.768 110.704 487.784 113.824 489.224 117.472C490.664 121.12 491.528 125.104 491.816 129.424L471.224 133.456C471.032 131.344 470.696 129.28 470.216 127.264C469.832 125.248 469.112 123.52 468.056 122.08C467.096 120.544 465.8 119.344 464.168 118.48C462.632 117.52 460.616 117.04 458.12 117.04C452.648 117.04 448.376 119.344 445.304 123.952C442.328 128.56 440.168 134.752 438.824 142.528L436.376 157.216C436.088 158.944 435.8 161.008 435.512 163.408C435.32 165.712 435.224 167.824 435.224 169.744C435.224 174.832 436.28 178.912 438.392 181.984C440.6 184.96 444.008 186.448 448.616 186.448C453.704 186.448 457.688 184.864 460.568 181.696C463.448 178.528 465.272 174.784 466.04 170.464L467.192 163.552H449.48L451.928 148.432H488.504L479.576 202H460.712L463.16 187.456Z" fill="white"/>
<path d="M585.464 483.728C578.936 483.728 573.704 481.472 569.768 476.96C565.928 472.352 564.008 465.824 564.008 457.376C564.008 453.344 564.488 449.456 565.448 445.712C566.408 441.968 567.944 438.656 570.056 435.776C572.264 432.8 575.096 430.352 578.552 428.432C582.008 426.512 586.28 425.36 591.368 424.976C590.024 421.52 588.968 418.208 588.2 415.04C587.432 411.776 587.048 408.608 587.048 405.536C587.048 401.792 587.672 398.384 588.92 395.312C590.264 392.144 592.136 389.408 594.536 387.104C597.032 384.8 600.008 383.024 603.464 381.776C607.016 380.432 611.048 379.76 615.56 379.76C623.048 379.76 629.096 381.968 633.704 386.384C638.312 390.8 640.616 396.896 640.616 404.672C640.616 413.024 638.12 419.792 633.128 424.976C628.136 430.16 621.224 433.568 612.392 435.2L625.496 467.024L627.944 467.456L638.168 452.336L648.824 459.392L641.768 471.632C639.176 476.144 636.584 479.312 633.992 481.136C631.496 482.864 628.472 483.728 624.92 483.728C620.984 483.728 617.48 482.096 614.408 478.832C611.432 475.568 608.936 470.096 606.92 462.416H606.2C605.24 469.232 602.936 474.512 599.288 478.256C595.736 481.904 591.128 483.728 585.464 483.728ZM591.512 467.888C594.296 467.888 596.696 467.168 598.712 465.728C600.824 464.288 602.504 461.648 603.752 457.808L594.248 432.896C591.944 433.472 590.072 434.288 588.632 435.344C587.192 436.304 586.04 437.456 585.176 438.8C584.408 440.048 583.832 441.44 583.448 442.976C583.064 444.512 582.776 446.048 582.584 447.584C582.296 449.6 582.104 451.28 582.008 452.624C582.008 453.968 582.008 455.12 582.008 456.08C582.008 460.016 582.824 462.992 584.456 465.008C586.184 466.928 588.536 467.888 591.512 467.888ZM614.264 393.008C610.712 393.008 608.024 394.16 606.2 396.464C604.376 398.768 603.464 401.792 603.464 405.536C603.464 408.608 603.896 411.68 604.76 414.752C605.624 417.824 606.872 421.376 608.504 425.408L609.224 427.28C613.448 425.936 616.616 424.16 618.728 421.952C620.936 419.648 622.424 416.72 623.192 413.168C623.672 411.344 623.96 409.712 624.056 408.272C624.152 406.832 624.2 405.44 624.2 404.096C624.2 400.544 623.288 397.808 621.464 395.888C619.64 393.968 617.24 393.008 614.264 393.008Z" fill="white"/>
<path d="M272.936 336.44C267.656 336.44 263.336 334.808 259.976 331.544C256.712 328.184 255.08 323.336 255.08 317C255.08 312.104 255.752 307.784 257.096 304.04C258.44 300.296 260.216 297.176 262.424 294.68C264.632 292.088 267.224 290.12 270.2 288.776C273.176 287.432 276.296 286.76 279.56 286.76C284.84 286.76 289.112 288.44 292.376 291.8C295.736 295.064 297.416 299.864 297.416 306.2C297.416 311.096 296.744 315.416 295.4 319.16C294.056 322.904 292.28 326.072 290.072 328.664C287.864 331.16 285.272 333.08 282.296 334.424C279.32 335.768 276.2 336.44 272.936 336.44ZM273.224 330.824C277.448 330.824 280.952 329.528 283.736 326.936C286.52 324.248 288.344 320.264 289.208 314.984C289.496 313.256 289.736 311.816 289.928 310.664C290.12 309.512 290.264 308.6 290.36 307.928C290.456 307.16 290.504 306.536 290.504 306.056C290.6 305.576 290.648 305.144 290.648 304.76C290.648 300.536 289.592 297.416 287.48 295.4C285.464 293.384 282.728 292.376 279.272 292.376C275.048 292.376 271.544 293.72 268.76 296.408C265.976 299 264.152 302.936 263.288 308.216C263 309.944 262.76 311.384 262.568 312.536C262.376 313.688 262.232 314.648 262.136 315.416C262.04 316.088 261.944 316.664 261.848 317.144C261.848 317.624 261.848 318.056 261.848 318.44C261.848 322.664 262.856 325.784 264.872 327.8C266.984 329.816 269.768 330.824 273.224 330.824ZM331.256 288.488H338.888L307.64 331.688H300.008L331.256 288.488ZM273.224 345.8H280.856L249.608 389H242.12L273.224 345.8ZM301.448 390.728C296.168 390.728 291.848 389.096 288.488 385.832C285.224 382.472 283.592 377.624 283.592 371.288C283.592 366.392 284.264 362.072 285.608 358.328C286.952 354.584 288.728 351.464 290.936 348.968C293.144 346.376 295.736 344.408 298.712 343.064C301.688 341.72 304.808 341.048 308.072 341.048C313.352 341.048 317.624 342.728 320.888 346.088C324.248 349.352 325.928 354.152 325.928 360.488C325.928 365.384 325.256 369.704 323.912 373.448C322.568 377.192 320.792 380.36 318.584 382.952C316.376 385.448 313.784 387.368 310.808 388.712C307.832 390.056 304.712 390.728 301.448 390.728ZM301.736 385.112C305.96 385.112 309.464 383.816 312.248 381.224C315.032 378.536 316.856 374.552 317.72 369.272C318.008 367.544 318.248 366.104 318.44 364.952C318.632 363.8 318.776 362.888 318.872 362.216C318.968 361.448 319.016 360.824 319.016 360.344C319.112 359.864 319.16 359.432 319.16 359.048C319.16 354.824 318.104 351.704 315.992 349.688C313.976 347.672 311.24 346.664 307.784 346.664C303.56 346.664 300.056 348.008 297.272 350.696C294.488 353.288 292.664 357.224 291.8 362.504C291.512 364.232 291.272 365.672 291.08 366.824C290.888 367.976 290.744 368.936 290.648 369.704C290.552 370.376 290.456 370.952 290.36 371.432C290.36 371.912 290.36 372.344 290.36 372.728C290.36 376.952 291.368 380.072 293.384 382.088C295.496 384.104 298.28 385.112 301.736 385.112Z" fill="white"/>
</svg>
