<svg width="574" height="216" viewBox="0 0 574 216" fill="none" xmlns="http://www.w3.org/2000/svg">
<rect x="338.058" y="199" width="200" height="16" fill="white"/>
<rect x="400.058" y="166" width="75" height="33" fill="white"/>
<rect x="310.058" y="9" width="254" height="148" stroke="white" stroke-width="18"/>
<path d="M167.21 10.4307H44.0157C40.7665 10.4307 38.1076 13.0171 38.018 16.265L33.8105 168.635C33.7173 172.012 36.4297 174.8 39.8082 174.8H171.417C174.796 174.8 177.508 172.012 177.415 168.635L173.208 16.265C173.118 13.0171 170.459 10.4307 167.21 10.4307Z" fill="white"/>
<path d="M136.078 27.9375H74.4985C61.2436 27.9375 50.4985 38.6827 50.4985 51.9375V88.2296C50.4985 101.484 61.2436 112.23 74.4984 112.23H136.078C149.333 112.23 160.078 101.484 160.078 88.2296V51.9375C160.078 38.6827 149.333 27.9375 136.078 27.9375Z" fill="black"/>
<path fill-rule="evenodd" clip-rule="evenodd" d="M5.55213 180.569L0.171318 198.505C-0.598617 201.072 1.32317 203.655 4.00262 203.655H205.268C207.851 203.655 209.757 201.243 209.16 198.73L204.9 180.794C204.472 178.991 202.861 177.719 201.008 177.719H9.38343C7.617 177.719 6.05971 178.877 5.55213 180.569ZM0.896059 206.627V210.732C0.896059 211.837 1.79149 212.732 2.89606 212.732H206.709C207.813 212.732 208.709 211.837 208.709 210.732V206.627C208.709 205.523 207.813 204.627 206.709 204.627H2.89606C1.79149 204.627 0.896059 205.523 0.896059 206.627Z" fill="white"/>
<path d="M257.72 191.659H232.836C230.075 191.659 227.836 193.898 227.836 196.659V207.936C227.836 209.147 228.276 210.317 229.073 211.228L230.881 213.294C231.83 214.379 233.202 215.002 234.644 215.002H264.658C267.419 215.002 269.658 212.763 269.658 210.002V204.291C269.658 203.047 269.194 201.848 268.358 200.927L261.42 193.296C260.472 192.253 259.129 191.659 257.72 191.659Z" fill="white"/>
<path d="M231.727 202.357C222.46 196.072 216.56 193.857 203.521 194.577" stroke="white" stroke-width="4"/>
</svg>
